<svg class="rich-terminal" viewBox="0 0 1190 538.0" xmlns="http://www.w3.org/2000/svg">
    <!-- Generated with Rich https://www.textualize.io -->
    <style>

    @font-face {
        font-family: "Fira Code";
        src: local("FiraCode-Regular");
        font-style: normal;
        font-weight: 400;
    }
    @font-face {
        font-family: "Fira Code";
        src: local("FiraCode-Bold");
        font-style: bold;
        font-weight: 700;
    }

    .terminal-2753991059-matrix {
        font-family: Fira Code, monospace;
        font-size: 20px;
        line-height: 24.4px;
        font-variant-east-asian: full-width;
    }

    .terminal-2753991059-title {
        font-size: 18px;
        font-weight: bold;
        font-family: arial;
    }

    .terminal-2753991059-r1 { fill: #c5c8c6 }
.terminal-2753991059-r2 { fill: #e0e0e0 }
.terminal-2753991059-r3 { fill: #c5c6c7 }
.terminal-2753991059-r4 { fill: #45505a }
.terminal-2753991059-r5 { fill: #e1e1e1;font-weight: bold }
.terminal-2753991059-r6 { fill: #98e024 }
.terminal-2753991059-r7 { fill: #625e4c }
.terminal-2753991059-r8 { fill: #98e024;font-weight: bold }
.terminal-2753991059-r9 { fill: #9e9e9e }
.terminal-2753991059-r10 { fill: #fd971f }
.terminal-2753991059-r11 { fill: #fd971f;font-weight: bold }
.terminal-2753991059-r12 { fill: #f4005f }
.terminal-2753991059-r13 { fill: #f4005f;font-weight: bold }
.terminal-2753991059-r14 { fill: #a5a5a5 }
.terminal-2753991059-r15 { fill: #ffa62b;font-weight: bold }
.terminal-2753991059-r16 { fill: #495259 }
    </style>

    <defs>
    <clipPath id="terminal-2753991059-clip-terminal">
      <rect x="0" y="0" width="1170.1999999999998" height="487.0" />
    </clipPath>
    <clipPath id="terminal-2753991059-line-0">
    <rect x="0" y="1.5" width="1171.2" height="24.65"/>
            </clipPath>
<clipPath id="terminal-2753991059-line-1">
    <rect x="0" y="25.9" width="1171.2" height="24.65"/>
            </clipPath>
<clipPath id="terminal-2753991059-line-2">
    <rect x="0" y="50.3" width="1171.2" height="24.65"/>
            </clipPath>
<clipPath id="terminal-2753991059-line-3">
    <rect x="0" y="74.7" width="1171.2" height="24.65"/>
            </clipPath>
<clipPath id="terminal-2753991059-line-4">
    <rect x="0" y="99.1" width="1171.2" height="24.65"/>
            </clipPath>
<clipPath id="terminal-2753991059-line-5">
    <rect x="0" y="123.5" width="1171.2" height="24.65"/>
            </clipPath>
<clipPath id="terminal-2753991059-line-6">
    <rect x="0" y="147.9" width="1171.2" height="24.65"/>
            </clipPath>
<clipPath id="terminal-2753991059-line-7">
    <rect x="0" y="172.3" width="1171.2" height="24.65"/>
            </clipPath>
<clipPath id="terminal-2753991059-line-8">
    <rect x="0" y="196.7" width="1171.2" height="24.65"/>
            </clipPath>
<clipPath id="terminal-2753991059-line-9">
    <rect x="0" y="221.1" width="1171.2" height="24.65"/>
            </clipPath>
<clipPath id="terminal-2753991059-line-10">
    <rect x="0" y="245.5" width="1171.2" height="24.65"/>
            </clipPath>
<clipPath id="terminal-2753991059-line-11">
    <rect x="0" y="269.9" width="1171.2" height="24.65"/>
            </clipPath>
<clipPath id="terminal-2753991059-line-12">
    <rect x="0" y="294.3" width="1171.2" height="24.65"/>
            </clipPath>
<clipPath id="terminal-2753991059-line-13">
    <rect x="0" y="318.7" width="1171.2" height="24.65"/>
            </clipPath>
<clipPath id="terminal-2753991059-line-14">
    <rect x="0" y="343.1" width="1171.2" height="24.65"/>
            </clipPath>
<clipPath id="terminal-2753991059-line-15">
    <rect x="0" y="367.5" width="1171.2" height="24.65"/>
            </clipPath>
<clipPath id="terminal-2753991059-line-16">
    <rect x="0" y="391.9" width="1171.2" height="24.65"/>
            </clipPath>
<clipPath id="terminal-2753991059-line-17">
    <rect x="0" y="416.3" width="1171.2" height="24.65"/>
            </clipPath>
<clipPath id="terminal-2753991059-line-18">
    <rect x="0" y="440.7" width="1171.2" height="24.65"/>
            </clipPath>
    </defs>

    <rect fill="#292929" stroke="rgba(255,255,255,0.35)" stroke-width="1" x="1" y="1" width="1188" height="536" rx="8"/><text class="terminal-2753991059-title" fill="#c5c8c6" text-anchor="middle" x="594" y="27">agents-fuel-gauge</text>
            <g transform="translate(26,22)">
            <circle cx="0" cy="0" r="7" fill="#ff5f57"/>
            <circle cx="22" cy="0" r="7" fill="#febc2e"/>
            <circle cx="44" cy="0" r="7" fill="#28c840"/>
            </g>
        
    <g transform="translate(9, 41)" clip-path="url(#terminal-2753991059-clip-terminal)">
    <rect fill="#242f38" x="0" y="1.5" width="12.2" height="24.65" shape-rendering="crispEdges"/><rect fill="#242f38" x="12.2" y="1.5" width="12.2" height="24.65" shape-rendering="crispEdges"/><rect fill="#242f38" x="24.4" y="1.5" width="61" height="24.65" shape-rendering="crispEdges"/><rect fill="#242f38" x="85.4" y="1.5" width="12.2" height="24.65" shape-rendering="crispEdges"/><rect fill="#242f38" x="97.6" y="1.5" width="366" height="24.65" shape-rendering="crispEdges"/><rect fill="#242f38" x="463.6" y="1.5" width="207.4" height="24.65" shape-rendering="crispEdges"/><rect fill="#242f38" x="671" y="1.5" width="378.2" height="24.65" shape-rendering="crispEdges"/><rect fill="#2c363f" x="1049.2" y="1.5" width="12.2" height="24.65" shape-rendering="crispEdges"/><rect fill="#2c363f" x="1061.4" y="1.5" width="97.6" height="24.65" shape-rendering="crispEdges"/><rect fill="#2c363f" x="1159" y="1.5" width="12.2" height="24.65" shape-rendering="crispEdges"/><rect fill="#1e1e1e" x="0" y="25.9" width="12.2" height="24.65" shape-rendering="crispEdges"/><rect fill="#1e1e1e" x="12.2" y="25.9" width="1122.4" height="24.65" shape-rendering="crispEdges"/><rect fill="#1e1e1e" x="1134.6" y="25.9" width="12.2" height="24.65" shape-rendering="crispEdges"/><rect fill="#1e1e1e" x="1146.8" y="25.9" width="24.4" height="24.65" shape-rendering="crispEdges"/><rect fill="#1e1e1e" x="0" y="50.3" width="12.2" height="24.65" shape-rendering="crispEdges"/><rect fill="#1e1e1e" x="12.2" y="50.3" width="12.2" height="24.65" shape-rendering="crispEdges"/><rect fill="#1e1e1e" x="24.4" y="50.3" width="12.2" height="24.65" shape-rendering="crispEdges"/><rect fill="#1e1e1e" x="36.6" y="50.3" width="97.6" height="24.65" shape-rendering="crispEdges"/><rect fill="#1e1e1e" x="134.2" y="50.3" width="988.2" height="24.65" shape-rendering="crispEdges"/><rect fill="#1e1e1e" x="1122.4" y="50.3" width="12.2" height="24.65" shape-rendering="crispEdges"/><rect fill="#1e1e1e" x="1134.6" y="50.3" width="12.2" height="24.65" shape-rendering="crispEdges"/><rect fill="#1e1e1e" x="1146.8" y="50.3" width="24.4" height="24.65" shape-rendering="crispEdges"/><rect fill="#1e1e1e" x="0" y="74.7" width="12.2" height="24.65" shape-rendering="crispEdges"/><rect fill="#1e1e1e" x="12.2" y="74.7" width="12.2" height="24.65" shape-rendering="crispEdges"/><rect fill="#1e1e1e" x="24.4" y="74.7" width="1098" height="24.65" shape-rendering="crispEdges"/><rect fill="#1e1e1e" x="1122.4" y="74.7" width="12.2" height="24.65" shape-rendering="crispEdges"/><rect fill="#1e1e1e" x="1134.6" y="74.7" width="12.2" height="24.65" shape-rendering="crispEdges"/><rect fill="#1e1e1e" x="1146.8" y="74.7" width="24.4" height="24.65" shape-rendering="crispEdges"/><rect fill="#1e1e1e" x="0" y="99.1" width="12.2" height="24.65" shape-rendering="crispEdges"/><rect fill="#1e1e1e" x="12.2" y="99.1" width="12.2" height="24.65" shape-rendering="crispEdges"/><rect fill="#1e1e1e" x="24.4" y="99.1" width="24.4" height="24.65" shape-rendering="crispEdges"/><rect fill="#1e1e1e" x="48.8" y="99.1" width="305" height="24.65" shape-rendering="crispEdges"/><rect fill="#1e1e1e" x="353.8" y="99.1" width="73.2" height="24.65" shape-rendering="crispEdges"/><rect fill="#1e1e1e" x="427" y="99.1" width="158.6" height="24.65" shape-rendering="crispEdges"/><rect fill="#1e1e1e" x="585.6" y="99.1" width="61" height="24.65" shape-rendering="crispEdges"/><rect fill="#1e1e1e" x="646.6" y="99.1" width="219.6" height="24.65" shape-rendering="crispEdges"/><rect fill="#1e1e1e" x="866.2" y="99.1" width="97.6" height="24.65" shape-rendering="crispEdges"/><rect fill="#1e1e1e" x="963.8" y="99.1" width="134.2" height="24.65" shape-rendering="crispEdges"/><rect fill="#1e1e1e" x="1098" y="99.1" width="24.4" height="24.65" shape-rendering="crispEdges"/><rect fill="#1e1e1e" x="1122.4" y="99.1" width="12.2" height="24.65" shape-rendering="crispEdges"/><rect fill="#1e1e1e" x="1134.6" y="99.1" width="12.2" height="24.65" shape-rendering="crispEdges"/><rect fill="#1e1e1e" x="1146.8" y="99.1" width="24.4" height="24.65" shape-rendering="crispEdges"/><rect fill="#1e1e1e" x="0" y="123.5" width="12.2" height="24.65" shape-rendering="crispEdges"/><rect fill="#1e1e1e" x="12.2" y="123.5" width="12.2" height="24.65" shape-rendering="crispEdges"/><rect fill="#1e1e1e" x="24.4" y="123.5" width="24.4" height="24.65" shape-rendering="crispEdges"/><rect fill="#1e1e1e" x="48.8" y="123.5" width="305" height="24.65" shape-rendering="crispEdges"/><rect fill="#1e1e1e" x="353.8" y="123.5" width="158.6" height="24.65" shape-rendering="crispEdges"/><rect fill="#1e1e1e" x="512.4" y="123.5" width="73.2" height="24.65" shape-rendering="crispEdges"/><rect fill="#1e1e1e" x="585.6" y="123.5" width="61" height="24.65" shape-rendering="crispEdges"/><rect fill="#1e1e1e" x="646.6" y="123.5" width="219.6" height="24.65" shape-rendering="crispEdges"/><rect fill="#1e1e1e" x="866.2" y="123.5" width="97.6" height="24.65" shape-rendering="crispEdges"/><rect fill="#1e1e1e" x="963.8" y="123.5" width="134.2" height="24.65" shape-rendering="crispEdges"/><rect fill="#1e1e1e" x="1098" y="123.5" width="24.4" height="24.65" shape-rendering="crispEdges"/><rect fill="#1e1e1e" x="1122.4" y="123.5" width="12.2" height="24.65" shape-rendering="crispEdges"/><rect fill="#1e1e1e" x="1134.6" y="123.5" width="12.2" height="24.65" shape-rendering="crispEdges"/><rect fill="#1e1e1e" x="1146.8" y="123.5" width="24.4" height="24.65" shape-rendering="crispEdges"/><rect fill="#1e1e1e" x="0" y="147.9" width="12.2" height="24.65" shape-rendering="crispEdges"/><rect fill="#1e1e1e" x="12.2" y="147.9" width="12.2" height="24.65" shape-rendering="crispEdges"/><rect fill="#1e1e1e" x="24.4" y="147.9" width="24.4" height="24.65" shape-rendering="crispEdges"/><rect fill="#1e1e1e" x="48.8" y="147.9" width="305" height="24.65" shape-rendering="crispEdges"/><rect fill="#1e1e1e" x="353.8" y="147.9" width="207.4" height="24.65" shape-rendering="crispEdges"/><rect fill="#1e1e1e" x="561.2" y="147.9" width="24.4" height="24.65" shape-rendering="crispEdges"/><rect fill="#1e1e1e" x="585.6" y="147.9" width="61" height="24.65" shape-rendering="crispEdges"/><rect fill="#1e1e1e" x="646.6" y="147.9" width="219.6" height="24.65" shape-rendering="crispEdges"/><rect fill="#1e1e1e" x="866.2" y="147.9" width="97.6" height="24.65" shape-rendering="crispEdges"/><rect fill="#1e1e1e" x="963.8" y="147.9" width="36.6" height="24.65" shape-rendering="crispEdges"/><rect fill="#1e1e1e" x="1000.4" y="147.9" width="97.6" height="24.65" shape-rendering="crispEdges"/><rect fill="#1e1e1e" x="1098" y="147.9" width="24.4" height="24.65" shape-rendering="crispEdges"/><rect fill="#1e1e1e" x="1122.4" y="147.9" width="12.2" height="24.65" shape-rendering="crispEdges"/><rect fill="#1e1e1e" x="1134.6" y="147.9" width="12.2" height="24.65" shape-rendering="crispEdges"/><rect fill="#1e1e1e" x="1146.8" y="147.9" width="24.4" height="24.65" shape-rendering="crispEdges"/><rect fill="#1e1e1e" x="0" y="172.3" width="12.2" height="24.65" shape-rendering="crispEdges"/><rect fill="#1e1e1e" x="12.2" y="172.3" width="12.2" height="24.65" shape-rendering="crispEdges"/><rect fill="#1e1e1e" x="24.4" y="172.3" width="1098" height="24.65" shape-rendering="crispEdges"/><rect fill="#1e1e1e" x="1122.4" y="172.3" width="12.2" height="24.65" shape-rendering="crispEdges"/><rect fill="#1e1e1e" x="1134.6" y="172.3" width="12.2" height="24.65" shape-rendering="crispEdges"/><rect fill="#1e1e1e" x="1146.8" y="172.3" width="24.4" height="24.65" shape-rendering="crispEdges"/><rect fill="#1e1e1e" x="0" y="196.7" width="12.2" height="24.65" shape-rendering="crispEdges"/><rect fill="#1e1e1e" x="12.2" y="196.7" width="12.2" height="24.65" shape-rendering="crispEdges"/><rect fill="#1e1e1e" x="24.4" y="196.7" width="646.6" height="24.65" shape-rendering="crispEdges"/><rect fill="#1e1e1e" x="671" y="196.7" width="439.2" height="24.65" shape-rendering="crispEdges"/><rect fill="#1e1e1e" x="1110.2" y="196.7" width="12.2" height="24.65" shape-rendering="crispEdges"/><rect fill="#1e1e1e" x="1122.4" y="196.7" width="12.2" height="24.65" shape-rendering="crispEdges"/><rect fill="#1e1e1e" x="1134.6" y="196.7" width="12.2" height="24.65" shape-rendering="crispEdges"/><rect fill="#1e1e1e" x="1146.8" y="196.7" width="24.4" height="24.65" shape-rendering="crispEdges"/><rect fill="#1e1e1e" x="0" y="221.1" width="12.2" height="24.65" shape-rendering="crispEdges"/><rect fill="#1e1e1e" x="12.2" y="221.1" width="1122.4" height="24.65" shape-rendering="crispEdges"/><rect fill="#1e1e1e" x="1134.6" y="221.1" width="12.2" height="24.65" shape-rendering="crispEdges"/><rect fill="#1e1e1e" x="1146.8" y="221.1" width="24.4" height="24.65" shape-rendering="crispEdges"/><rect fill="#1e1e1e" x="0" y="245.5" width="12.2" height="24.65" shape-rendering="crispEdges"/><rect fill="#1e1e1e" x="12.2" y="245.5" width="12.2" height="24.65" shape-rendering="crispEdges"/><rect fill="#1e1e1e" x="24.4" y="245.5" width="12.2" height="24.65" shape-rendering="crispEdges"/><rect fill="#1e1e1e" x="36.6" y="245.5" width="85.4" height="24.65" shape-rendering="crispEdges"/><rect fill="#1e1e1e" x="122" y="245.5" width="1000.4" height="24.65" shape-rendering="crispEdges"/><rect fill="#1e1e1e" x="1122.4" y="245.5" width="12.2" height="24.65" shape-rendering="crispEdges"/><rect fill="#1e1e1e" x="1134.6" y="245.5" width="12.2" height="24.65" shape-rendering="crispEdges"/><rect fill="#1e1e1e" x="1146.8" y="245.5" width="24.4" height="24.65" shape-rendering="crispEdges"/><rect fill="#1e1e1e" x="0" y="269.9" width="12.2" height="24.65" shape-rendering="crispEdges"/><rect fill="#1e1e1e" x="12.2" y="269.9" width="12.2" height="24.65" shape-rendering="crispEdges"/><rect fill="#1e1e1e" x="24.4" y="269.9" width="1098" height="24.65" shape-rendering="crispEdges"/><rect fill="#1e1e1e" x="1122.4" y="269.9" width="12.2" height="24.65" shape-rendering="crispEdges"/><rect fill="#1e1e1e" x="1134.6" y="269.9" width="12.2" height="24.65" shape-rendering="crispEdges"/><rect fill="#1e1e1e" x="1146.8" y="269.9" width="24.4" height="24.65" shape-rendering="crispEdges"/><rect fill="#1e1e1e" x="0" y="294.3" width="12.2" height="24.65" shape-rendering="crispEdges"/><rect fill="#1e1e1e" x="12.2" y="294.3" width="12.2" height="24.65" shape-rendering="crispEdges"/><rect fill="#1e1e1e" x="24.4" y="294.3" width="24.4" height="24.65" shape-rendering="crispEdges"/><rect fill="#1e1e1e" x="48.8" y="294.3" width="305" height="24.65" shape-rendering="crispEdges"/><rect fill="#1e1e1e" x="353.8" y="294.3" width="195.2" height="24.65" shape-rendering="crispEdges"/><rect fill="#1e1e1e" x="549" y="294.3" width="36.6" height="24.65" shape-rendering="crispEdges"/><rect fill="#1e1e1e" x="585.6" y="294.3" width="61" height="24.65" shape-rendering="crispEdges"/><rect fill="#1e1e1e" x="646.6" y="294.3" width="219.6" height="24.65" shape-rendering="crispEdges"/><rect fill="#1e1e1e" x="866.2" y="294.3" width="97.6" height="24.65" shape-rendering="crispEdges"/><rect fill="#1e1e1e" x="963.8" y="294.3" width="122" height="24.65" shape-rendering="crispEdges"/><rect fill="#1e1e1e" x="1085.8" y="294.3" width="12.2" height="24.65" shape-rendering="crispEdges"/><rect fill="#1e1e1e" x="1098" y="294.3" width="24.4" height="24.65" shape-rendering="crispEdges"/><rect fill="#1e1e1e" x="1122.4" y="294.3" width="12.2" height="24.65" shape-rendering="crispEdges"/><rect fill="#1e1e1e" x="1134.6" y="294.3" width="12.2" height="24.65" shape-rendering="crispEdges"/><rect fill="#1e1e1e" x="1146.8" y="294.3" width="24.4" height="24.65" shape-rendering="crispEdges"/><rect fill="#1e1e1e" x="0" y="318.7" width="12.2" height="24.65" shape-rendering="crispEdges"/><rect fill="#1e1e1e" x="12.2" y="318.7" width="12.2" height="24.65" shape-rendering="crispEdges"/><rect fill="#1e1e1e" x="24.4" y="318.7" width="24.4" height="24.65" shape-rendering="crispEdges"/><rect fill="#1e1e1e" x="48.8" y="318.7" width="305" height="24.65" shape-rendering="crispEdges"/><rect fill="#1e1e1e" x="353.8" y="318.7" width="24.4" height="24.65" shape-rendering="crispEdges"/><rect fill="#1e1e1e" x="378.2" y="318.7" width="207.4" height="24.65" shape-rendering="crispEdges"/><rect fill="#1e1e1e" x="585.6" y="318.7" width="61" height="24.65" shape-rendering="crispEdges"/><rect fill="#1e1e1e" x="646.6" y="318.7" width="219.6" height="24.65" shape-rendering="crispEdges"/><rect fill="#1e1e1e" x="866.2" y="318.7" width="97.6" height="24.65" shape-rendering="crispEdges"/><rect fill="#1e1e1e" x="963.8" y="318.7" width="36.6" height="24.65" shape-rendering="crispEdges"/><rect fill="#1e1e1e" x="1000.4" y="318.7" width="97.6" height="24.65" shape-rendering="crispEdges"/><rect fill="#1e1e1e" x="1098" y="318.7" width="24.4" height="24.65" shape-rendering="crispEdges"/><rect fill="#1e1e1e" x="1122.4" y="318.7" width="12.2" height="24.65" shape-rendering="crispEdges"/><rect fill="#1e1e1e" x="1134.6" y="318.7" width="12.2" height="24.65" shape-rendering="crispEdges"/><rect fill="#1e1e1e" x="1146.8" y="318.7" width="24.4" height="24.65" shape-rendering="crispEdges"/><rect fill="#1e1e1e" x="0" y="343.1" width="12.2" height="24.65" shape-rendering="crispEdges"/><rect fill="#1e1e1e" x="12.2" y="343.1" width="12.2" height="24.65" shape-rendering="crispEdges"/><rect fill="#1e1e1e" x="24.4" y="343.1" width="1098" height="24.65" shape-rendering="crispEdges"/><rect fill="#1e1e1e" x="1122.4" y="343.1" width="12.2" height="24.65" shape-rendering="crispEdges"/><rect fill="#1e1e1e" x="1134.6" y="343.1" width="12.2" height="24.65" shape-rendering="crispEdges"/><rect fill="#1e1e1e" x="1146.8" y="343.1" width="24.4" height="24.65" shape-rendering="crispEdges"/><rect fill="#1e1e1e" x="0" y="367.5" width="12.2" height="24.65" shape-rendering="crispEdges"/><rect fill="#1e1e1e" x="12.2" y="367.5" width="12.2" height="24.65" shape-rendering="crispEdges"/><rect fill="#1e1e1e" x="24.4" y="367.5" width="719.8" height="24.65" shape-rendering="crispEdges"/><rect fill="#1e1e1e" x="744.2" y="367.5" width="366" height="24.65" shape-rendering="crispEdges"/><rect fill="#1e1e1e" x="1110.2" y="367.5" width="12.2" height="24.65" shape-rendering="crispEdges"/><rect fill="#1e1e1e" x="1122.4" y="367.5" width="12.2" height="24.65" shape-rendering="crispEdges"/><rect fill="#1e1e1e" x="1134.6" y="367.5" width="12.2" height="24.65" shape-rendering="crispEdges"/><rect fill="#1e1e1e" x="1146.8" y="367.5" width="24.4" height="24.65" shape-rendering="crispEdges"/><rect fill="#1e1e1e" x="0" y="391.9" width="1171.2" height="24.65" shape-rendering="crispEdges"/><rect fill="#1e1e1e" x="0" y="416.3" width="12.2" height="24.65" shape-rendering="crispEdges"/><rect fill="#1e1e1e" x="12.2" y="416.3" width="24.4" height="24.65" shape-rendering="crispEdges"/><rect fill="#1e1e1e" x="36.6" y="416.3" width="12.2" height="24.65" shape-rendering="crispEdges"/><rect fill="#1e1e1e" x="48.8" y="416.3" width="158.6" height="24.65" shape-rendering="crispEdges"/><rect fill="#1e1e1e" x="207.4" y="416.3" width="12.2" height="24.65" shape-rendering="crispEdges"/><rect fill="#1e1e1e" x="219.6" y="416.3" width="146.4" height="24.65" shape-rendering="crispEdges"/><rect fill="#1e1e1e" x="366" y="416.3" width="12.2" height="24.65" shape-rendering="crispEdges"/><rect fill="#1e1e1e" x="378.2" y="416.3" width="158.6" height="24.65" shape-rendering="crispEdges"/><rect fill="#1e1e1e" x="536.8" y="416.3" width="12.2" height="24.65" shape-rendering="crispEdges"/><rect fill="#1e1e1e" x="549" y="416.3" width="109.8" height="24.65" shape-rendering="crispEdges"/><rect fill="#1e1e1e" x="658.8" y="416.3" width="12.2" height="24.65" shape-rendering="crispEdges"/><rect fill="#1e1e1e" x="671" y="416.3" width="244" height="24.65" shape-rendering="crispEdges"/><rect fill="#1e1e1e" x="915" y="416.3" width="219.6" height="24.65" shape-rendering="crispEdges"/><rect fill="#1e1e1e" x="1134.6" y="416.3" width="24.4" height="24.65" shape-rendering="crispEdges"/><rect fill="#1e1e1e" x="1159" y="416.3" width="12.2" height="24.65" shape-rendering="crispEdges"/><rect fill="#1e1e1e" x="0" y="440.7" width="12.2" height="24.65" shape-rendering="crispEdges"/><rect fill="#1e1e1e" x="12.2" y="440.7" width="24.4" height="24.65" shape-rendering="crispEdges"/><rect fill="#1e1e1e" x="36.6" y="440.7" width="1073.6" height="24.65" shape-rendering="crispEdges"/><rect fill="#1e1e1e" x="1110.2" y="440.7" width="24.4" height="24.65" shape-rendering="crispEdges"/><rect fill="#1e1e1e" x="1134.6" y="440.7" width="24.4" height="24.65" shape-rendering="crispEdges"/><rect fill="#1e1e1e" x="1159" y="440.7" width="12.2" height="24.65" shape-rendering="crispEdges"/><rect fill="#242f38" x="0" y="465.1" width="36.6" height="24.65" shape-rendering="crispEdges"/><rect fill="#242f38" x="36.6" y="465.1" width="61" height="24.65" shape-rendering="crispEdges"/><rect fill="#242f38" x="97.6" y="465.1" width="36.6" height="24.65" shape-rendering="crispEdges"/><rect fill="#242f38" x="134.2" y="465.1" width="97.6" height="24.65" shape-rendering="crispEdges"/><rect fill="#242f38" x="231.8" y="465.1" width="36.6" height="24.65" shape-rendering="crispEdges"/><rect fill="#242f38" x="268.4" y="465.1" width="73.2" height="24.65" shape-rendering="crispEdges"/><rect fill="#242f38" x="341.6" y="465.1" width="683.2" height="24.65" shape-rendering="crispEdges"/><rect fill="#242f38" x="1024.8" y="465.1" width="12.2" height="24.65" shape-rendering="crispEdges"/><rect fill="#242f38" x="1037" y="465.1" width="24.4" height="24.65" shape-rendering="crispEdges"/><rect fill="#242f38" x="1061.4" y="465.1" width="97.6" height="24.65" shape-rendering="crispEdges"/><rect fill="#242f38" x="1159" y="465.1" width="12.2" height="24.65" shape-rendering="crispEdges"/>
    <g class="terminal-2753991059-matrix">
    <text class="terminal-2753991059-r2" x="12.2" y="20" textLength="12.2" clip-path="url(#terminal-2753991059-line-0)">≡</text><text class="terminal-2753991059-r2" x="463.6" y="20" textLength="207.4" clip-path="url(#terminal-2753991059-line-0)">agents&#160;fuel&#160;gauge</text><text class="terminal-2753991059-r3" x="1061.4" y="20" textLength="97.6" clip-path="url(#terminal-2753991059-line-0)">08:12:39</text><text class="terminal-2753991059-r1" x="1171.2" y="20" textLength="12.2" clip-path="url(#terminal-2753991059-line-0)">
</text><text class="terminal-2753991059-r1" x="1171.2" y="44.4" textLength="12.2" clip-path="url(#terminal-2753991059-line-1)">
</text><text class="terminal-2753991059-r4" x="12.2" y="68.8" textLength="12.2" clip-path="url(#terminal-2753991059-line-2)">╭</text><text class="terminal-2753991059-r4" x="24.4" y="68.8" textLength="12.2" clip-path="url(#terminal-2753991059-line-2)">─</text><text class="terminal-2753991059-r5" x="36.6" y="68.8" textLength="97.6" clip-path="url(#terminal-2753991059-line-2)">&#160;Claude&#160;</text><text class="terminal-2753991059-r4" x="134.2" y="68.8" textLength="988.2" clip-path="url(#terminal-2753991059-line-2)">─────────────────────────────────────────────────────────────────────────────────</text><text class="terminal-2753991059-r4" x="1122.4" y="68.8" textLength="12.2" clip-path="url(#terminal-2753991059-line-2)">╮</text><text class="terminal-2753991059-r1" x="1171.2" y="68.8" textLength="12.2" clip-path="url(#terminal-2753991059-line-2)">
</text><text class="terminal-2753991059-r4" x="12.2" y="93.2" textLength="12.2" clip-path="url(#terminal-2753991059-line-3)">│</text><text class="terminal-2753991059-r4" x="1122.4" y="93.2" textLength="12.2" clip-path="url(#terminal-2753991059-line-3)">│</text><text class="terminal-2753991059-r1" x="1171.2" y="93.2" textLength="12.2" clip-path="url(#terminal-2753991059-line-3)">
</text><text class="terminal-2753991059-r4" x="12.2" y="117.6" textLength="12.2" clip-path="url(#terminal-2753991059-line-4)">│</text><text class="terminal-2753991059-r2" x="48.8" y="117.6" textLength="305" clip-path="url(#terminal-2753991059-line-4)">5h&#160;all&#160;models&#160;&#160;&#160;&#160;&#160;&#160;&#160;&#160;&#160;&#160;&#160;&#160;</text><text class="terminal-2753991059-r6" x="353.8" y="117.6" textLength="73.2" clip-path="url(#terminal-2753991059-line-4)">██████</text><text class="terminal-2753991059-r7" x="427" y="117.6" textLength="158.6" clip-path="url(#terminal-2753991059-line-4)">░░░░░░░░░░░░░</text><text class="terminal-2753991059-r8" x="585.6" y="117.6" textLength="61" clip-path="url(#terminal-2753991059-line-4)">&#160;&#160;34%</text><text class="terminal-2753991059-r9" x="646.6" y="117.6" textLength="219.6" clip-path="url(#terminal-2753991059-line-4)">&#160;&#160;Thu&#160;Aug&#160;6&#160;10:23&#160;</text><text class="terminal-2753991059-r9" x="866.2" y="117.6" textLength="97.6" clip-path="url(#terminal-2753991059-line-4)">&#160;&#160;&#160;&#160;&#160;&#160;2h</text><text class="terminal-2753991059-r6" x="963.8" y="117.6" textLength="134.2" clip-path="url(#terminal-2753991059-line-4)">&#160;&#160;↑&#160;by&#160;150%</text><text class="terminal-2753991059-r4" x="1122.4" y="117.6" textLength="12.2" clip-path="url(#terminal-2753991059-line-4)">│</text><text class="terminal-2753991059-r1" x="1171.2" y="117.6" textLength="12.2" clip-path="url(#terminal-2753991059-line-4)">
</text><text class="terminal-2753991059-r4" x="12.2" y="142" textLength="12.2" clip-path="url(#terminal-2753991059-line-5)">│</text><text class="terminal-2753991059-r2" x="48.8" y="142" textLength="305" clip-path="url(#terminal-2753991059-line-5)">7d&#160;all&#160;models&#160;&#160;&#160;&#160;&#160;&#160;&#160;&#160;&#160;&#160;&#160;&#160;</text><text class="terminal-2753991059-r10" x="353.8" y="142" textLength="158.6" clip-path="url(#terminal-2753991059-line-5)">█████████████</text><text class="terminal-2753991059-r7" x="512.4" y="142" textLength="73.2" clip-path="url(#terminal-2753991059-line-5)">░░░░░░</text><text class="terminal-2753991059-r11" x="585.6" y="142" textLength="61" clip-path="url(#terminal-2753991059-line-5)">&#160;&#160;68%</text><text class="terminal-2753991059-r9" x="646.6" y="142" textLength="219.6" clip-path="url(#terminal-2753991059-line-5)">&#160;&#160;Fri&#160;Aug&#160;7&#160;02:20&#160;</text><text class="terminal-2753991059-r9" x="866.2" y="142" textLength="97.6" clip-path="url(#terminal-2753991059-line-5)">&#160;&#160;&#160;&#160;&#160;18h</text><text class="terminal-2753991059-r6" x="963.8" y="142" textLength="134.2" clip-path="url(#terminal-2753991059-line-5)">&#160;&#160;↑&#160;by&#160;289%</text><text class="terminal-2753991059-r4" x="1122.4" y="142" textLength="12.2" clip-path="url(#terminal-2753991059-line-5)">│</text><text class="terminal-2753991059-r1" x="1171.2" y="142" textLength="12.2" clip-path="url(#terminal-2753991059-line-5)">
</text><text class="terminal-2753991059-r4" x="12.2" y="166.4" textLength="12.2" clip-path="url(#terminal-2753991059-line-6)">│</text><text class="terminal-2753991059-r2" x="48.8" y="166.4" textLength="305" clip-path="url(#terminal-2753991059-line-6)">7d&#160;Fable&#160;&#160;&#160;&#160;&#160;&#160;&#160;&#160;&#160;&#160;&#160;&#160;&#160;&#160;&#160;&#160;&#160;</text><text class="terminal-2753991059-r12" x="353.8" y="166.4" textLength="207.4" clip-path="url(#terminal-2753991059-line-6)">█████████████████</text><text class="terminal-2753991059-r7" x="561.2" y="166.4" textLength="24.4" clip-path="url(#terminal-2753991059-line-6)">░░</text><text class="terminal-2753991059-r13" x="585.6" y="166.4" textLength="61" clip-path="url(#terminal-2753991059-line-6)">&#160;&#160;91%</text><text class="terminal-2753991059-r9" x="646.6" y="166.4" textLength="219.6" clip-path="url(#terminal-2753991059-line-6)">&#160;&#160;Fri&#160;Aug&#160;7&#160;02:20&#160;</text><text class="terminal-2753991059-r9" x="866.2" y="166.4" textLength="97.6" clip-path="url(#terminal-2753991059-line-6)">&#160;&#160;&#160;&#160;&#160;18h</text><text class="terminal-2753991059-r9" x="963.8" y="166.4" textLength="36.6" clip-path="url(#terminal-2753991059-line-6)">&#160;&#160;·</text><text class="terminal-2753991059-r4" x="1122.4" y="166.4" textLength="12.2" clip-path="url(#terminal-2753991059-line-6)">│</text><text class="terminal-2753991059-r1" x="1171.2" y="166.4" textLength="12.2" clip-path="url(#terminal-2753991059-line-6)">
</text><text class="terminal-2753991059-r4" x="12.2" y="190.8" textLength="12.2" clip-path="url(#terminal-2753991059-line-7)">│</text><text class="terminal-2753991059-r4" x="1122.4" y="190.8" textLength="12.2" clip-path="url(#terminal-2753991059-line-7)">│</text><text class="terminal-2753991059-r1" x="1171.2" y="190.8" textLength="12.2" clip-path="url(#terminal-2753991059-line-7)">
</text><text class="terminal-2753991059-r4" x="12.2" y="215.2" textLength="12.2" clip-path="url(#terminal-2753991059-line-8)">╰</text><text class="terminal-2753991059-r4" x="24.4" y="215.2" textLength="646.6" clip-path="url(#terminal-2753991059-line-8)">─────────────────────────────────────────────────────</text><text class="terminal-2753991059-r14" x="671" y="215.2" textLength="439.2" clip-path="url(#terminal-2753991059-line-8)">&#160;Max&#160;20x&#160;·&#160;d•••@e•••.com&#160;·&#160;just&#160;now&#160;</text><text class="terminal-2753991059-r4" x="1110.2" y="215.2" textLength="12.2" clip-path="url(#terminal-2753991059-line-8)">─</text><text class="terminal-2753991059-r4" x="1122.4" y="215.2" textLength="12.2" clip-path="url(#terminal-2753991059-line-8)">╯</text><text class="terminal-2753991059-r1" x="1171.2" y="215.2" textLength="12.2" clip-path="url(#terminal-2753991059-line-8)">
</text><text class="terminal-2753991059-r1" x="1171.2" y="239.6" textLength="12.2" clip-path="url(#terminal-2753991059-line-9)">
</text><text class="terminal-2753991059-r4" x="12.2" y="264" textLength="12.2" clip-path="url(#terminal-2753991059-line-10)">╭</text><text class="terminal-2753991059-r4" x="24.4" y="264" textLength="12.2" clip-path="url(#terminal-2753991059-line-10)">─</text><text class="terminal-2753991059-r5" x="36.6" y="264" textLength="85.4" clip-path="url(#terminal-2753991059-line-10)">&#160;Codex&#160;</text><text class="terminal-2753991059-r4" x="122" y="264" textLength="1000.4" clip-path="url(#terminal-2753991059-line-10)">──────────────────────────────────────────────────────────────────────────────────</text><text class="terminal-2753991059-r4" x="1122.4" y="264" textLength="12.2" clip-path="url(#terminal-2753991059-line-10)">╮</text><text class="terminal-2753991059-r1" x="1171.2" y="264" textLength="12.2" clip-path="url(#terminal-2753991059-line-10)">
</text><text class="terminal-2753991059-r4" x="12.2" y="288.4" textLength="12.2" clip-path="url(#terminal-2753991059-line-11)">│</text><text class="terminal-2753991059-r4" x="1122.4" y="288.4" textLength="12.2" clip-path="url(#terminal-2753991059-line-11)">│</text><text class="terminal-2753991059-r1" x="1171.2" y="288.4" textLength="12.2" clip-path="url(#terminal-2753991059-line-11)">
</text><text class="terminal-2753991059-r4" x="12.2" y="312.8" textLength="12.2" clip-path="url(#terminal-2753991059-line-12)">│</text><text class="terminal-2753991059-r2" x="48.8" y="312.8" textLength="305" clip-path="url(#terminal-2753991059-line-12)">7d&#160;all&#160;models&#160;&#160;&#160;&#160;&#160;&#160;&#160;&#160;&#160;&#160;&#160;&#160;</text><text class="terminal-2753991059-r10" x="353.8" y="312.8" textLength="195.2" clip-path="url(#terminal-2753991059-line-12)">████████████████</text><text class="terminal-2753991059-r7" x="549" y="312.8" textLength="36.6" clip-path="url(#terminal-2753991059-line-12)">░░░</text><text class="terminal-2753991059-r11" x="585.6" y="312.8" textLength="61" clip-path="url(#terminal-2753991059-line-12)">&#160;&#160;82%</text><text class="terminal-2753991059-r9" x="646.6" y="312.8" textLength="219.6" clip-path="url(#terminal-2753991059-line-12)">&#160;&#160;Tue&#160;Aug&#160;11&#160;10:12</text><text class="terminal-2753991059-r9" x="866.2" y="312.8" textLength="97.6" clip-path="url(#terminal-2753991059-line-12)">&#160;&#160;&#160;5d&#160;1h</text><text class="terminal-2753991059-r13" x="963.8" y="312.8" textLength="122" clip-path="url(#terminal-2753991059-line-12)">&#160;&#160;↓&#160;by&#160;92%</text><text class="terminal-2753991059-r4" x="1122.4" y="312.8" textLength="12.2" clip-path="url(#terminal-2753991059-line-12)">│</text><text class="terminal-2753991059-r1" x="1171.2" y="312.8" textLength="12.2" clip-path="url(#terminal-2753991059-line-12)">
</text><text class="terminal-2753991059-r4" x="12.2" y="337.2" textLength="12.2" clip-path="url(#terminal-2753991059-line-13)">│</text><text class="terminal-2753991059-r2" x="48.8" y="337.2" textLength="305" clip-path="url(#terminal-2753991059-line-13)">7d&#160;GPT-5.3-Codex-Spark&#160;&#160;&#160;</text><text class="terminal-2753991059-r6" x="353.8" y="337.2" textLength="24.4" clip-path="url(#terminal-2753991059-line-13)">██</text><text class="terminal-2753991059-r7" x="378.2" y="337.2" textLength="207.4" clip-path="url(#terminal-2753991059-line-13)">░░░░░░░░░░░░░░░░░</text><text class="terminal-2753991059-r8" x="585.6" y="337.2" textLength="61" clip-path="url(#terminal-2753991059-line-13)">&#160;&#160;12%</text><text class="terminal-2753991059-r9" x="646.6" y="337.2" textLength="219.6" clip-path="url(#terminal-2753991059-line-13)">&#160;&#160;Thu&#160;Aug&#160;13&#160;06:12</text><text class="terminal-2753991059-r9" x="866.2" y="337.2" textLength="97.6" clip-path="url(#terminal-2753991059-line-13)">&#160;&#160;6d&#160;21h</text><text class="terminal-2753991059-r9" x="963.8" y="337.2" textLength="36.6" clip-path="url(#terminal-2753991059-line-13)">&#160;&#160;◦</text><text class="terminal-2753991059-r4" x="1122.4" y="337.2" textLength="12.2" clip-path="url(#terminal-2753991059-line-13)">│</text><text class="terminal-2753991059-r1" x="1171.2" y="337.2" textLength="12.2" clip-path="url(#terminal-2753991059-line-13)">
</text><text class="terminal-2753991059-r4" x="12.2" y="361.6" textLength="12.2" clip-path="url(#terminal-2753991059-line-14)">│</text><text class="terminal-2753991059-r4" x="1122.4" y="361.6" textLength="12.2" clip-path="url(#terminal-2753991059-line-14)">│</text><text class="terminal-2753991059-r1" x="1171.2" y="361.6" textLength="12.2" clip-path="url(#terminal-2753991059-line-14)">
</text><text class="terminal-2753991059-r4" x="12.2" y="386" textLength="12.2" clip-path="url(#terminal-2753991059-line-15)">╰</text><text class="terminal-2753991059-r4" x="24.4" y="386" textLength="719.8" clip-path="url(#terminal-2753991059-line-15)">───────────────────────────────────────────────────────────</text><text class="terminal-2753991059-r14" x="744.2" y="386" textLength="366" clip-path="url(#terminal-2753991059-line-15)">&#160;Pro&#160;·&#160;d•••@e•••.com&#160;·&#160;4m&#160;ago&#160;</text><text class="terminal-2753991059-r4" x="1110.2" y="386" textLength="12.2" clip-path="url(#terminal-2753991059-line-15)">─</text><text class="terminal-2753991059-r4" x="1122.4" y="386" textLength="12.2" clip-path="url(#terminal-2753991059-line-15)">╯</text><text class="terminal-2753991059-r1" x="1171.2" y="386" textLength="12.2" clip-path="url(#terminal-2753991059-line-15)">
</text><text class="terminal-2753991059-r1" x="1171.2" y="410.4" textLength="12.2" clip-path="url(#terminal-2753991059-line-16)">
</text><text class="terminal-2753991059-r13" x="36.6" y="434.8" textLength="12.2" clip-path="url(#terminal-2753991059-line-17)">↓</text><text class="terminal-2753991059-r9" x="48.8" y="434.8" textLength="158.6" clip-path="url(#terminal-2753991059-line-17)">&#160;slow&#160;down&#160;&#160;&#160;</text><text class="terminal-2753991059-r6" x="207.4" y="434.8" textLength="12.2" clip-path="url(#terminal-2753991059-line-17)">↑</text><text class="terminal-2753991059-r9" x="219.6" y="434.8" textLength="146.4" clip-path="url(#terminal-2753991059-line-17)">&#160;speed&#160;up&#160;&#160;&#160;</text><text class="terminal-2753991059-r9" x="366" y="434.8" textLength="12.2" clip-path="url(#terminal-2753991059-line-17)">·</text><text class="terminal-2753991059-r9" x="378.2" y="434.8" textLength="158.6" clip-path="url(#terminal-2753991059-line-17)">&#160;on&#160;budget&#160;&#160;&#160;</text><text class="terminal-2753991059-r13" x="536.8" y="434.8" textLength="12.2" clip-path="url(#terminal-2753991059-line-17)">✗</text><text class="terminal-2753991059-r9" x="549" y="434.8" textLength="109.8" clip-path="url(#terminal-2753991059-line-17)">&#160;spent&#160;&#160;&#160;</text><text class="terminal-2753991059-r9" x="658.8" y="434.8" textLength="12.2" clip-path="url(#terminal-2753991059-line-17)">◦</text><text class="terminal-2753991059-r9" x="671" y="434.8" textLength="244" clip-path="url(#terminal-2753991059-line-17)">&#160;too&#160;new&#160;to&#160;judge&#160;&#160;&#160;</text><text class="terminal-2753991059-r1" x="1171.2" y="434.8" textLength="12.2" clip-path="url(#terminal-2753991059-line-17)">
</text><text class="terminal-2753991059-r9" x="36.6" y="459.2" textLength="1073.6" clip-path="url(#terminal-2753991059-line-18)">the&#160;%&#160;is&#160;how&#160;far&#160;to&#160;change&#160;that&#160;meter&#x27;s&#160;average&#160;rate&#160;so&#160;far,&#160;so&#160;it&#160;lasts&#160;until&#160;it&#160;resets</text><text class="terminal-2753991059-r1" x="1171.2" y="459.2" textLength="12.2" clip-path="url(#terminal-2753991059-line-18)">
</text><text class="terminal-2753991059-r15" x="0" y="483.6" textLength="36.6" clip-path="url(#terminal-2753991059-line-19)">&#160;q&#160;</text><text class="terminal-2753991059-r2" x="36.6" y="483.6" textLength="61" clip-path="url(#terminal-2753991059-line-19)">Quit&#160;</text><text class="terminal-2753991059-r15" x="97.6" y="483.6" textLength="36.6" clip-path="url(#terminal-2753991059-line-19)">&#160;r&#160;</text><text class="terminal-2753991059-r2" x="134.2" y="483.6" textLength="97.6" clip-path="url(#terminal-2753991059-line-19)">Refresh&#160;</text><text class="terminal-2753991059-r15" x="231.8" y="483.6" textLength="36.6" clip-path="url(#terminal-2753991059-line-19)">&#160;t&#160;</text><text class="terminal-2753991059-r2" x="268.4" y="483.6" textLength="73.2" clip-path="url(#terminal-2753991059-line-19)">Theme&#160;</text><text class="terminal-2753991059-r16" x="1024.8" y="483.6" textLength="12.2" clip-path="url(#terminal-2753991059-line-19)">▏</text><text class="terminal-2753991059-r15" x="1037" y="483.6" textLength="24.4" clip-path="url(#terminal-2753991059-line-19)">^p</text><text class="terminal-2753991059-r2" x="1061.4" y="483.6" textLength="97.6" clip-path="url(#terminal-2753991059-line-19)">&#160;palette</text>
    </g>
    </g>
</svg>
