<svg class="rich-terminal" viewBox="0 0 1190 538.0" xmlns="http://www.w3.org/2000/svg">
    <!-- Generated with Rich https://www.textualize.io -->
    <style>

    @font-face {
        font-family: "Fira Code";
        src: local("FiraCode-Regular");
        font-style: normal;
        font-weight: 400;
    }
    @font-face {
        font-family: "Fira Code";
        src: local("FiraCode-Bold");
        font-style: bold;
        font-weight: 700;
    }

    .terminal-1560262123-matrix {
        font-family: Fira Code, monospace;
        font-size: 20px;
        line-height: 24.4px;
        font-variant-east-asian: full-width;
    }

    .terminal-1560262123-title {
        font-size: 18px;
        font-weight: bold;
        font-family: arial;
    }

    .terminal-1560262123-r1 { fill: #c5c8c6 }
.terminal-1560262123-r2 { fill: #1f1f1f }
.terminal-1560262123-r3 { fill: #383838 }
.terminal-1560262123-r4 { fill: #5d5d5d }
.terminal-1560262123-r5 { fill: #aa3731;font-weight: bold }
.terminal-1560262123-r6 { fill: #fafafa }
.terminal-1560262123-r7 { fill: #1c1c1c;font-weight: bold }
.terminal-1560262123-r8 { fill: #448c27 }
.terminal-1560262123-r9 { fill: #777777 }
.terminal-1560262123-r10 { fill: #448c27;font-weight: bold }
.terminal-1560262123-r11 { fill: #cb9000 }
.terminal-1560262123-r12 { fill: #cb9000;font-weight: bold }
.terminal-1560262123-r13 { fill: #1f1f1f;font-weight: bold }
.terminal-1560262123-r14 { fill: #aa3731 }
.terminal-1560262123-r15 { fill: #565656 }
.terminal-1560262123-r16 { fill: #0178d4;font-weight: bold }
.terminal-1560262123-r17 { fill: #acacac }
    </style>

    <defs>
    <clipPath id="terminal-1560262123-clip-terminal">
      <rect x="0" y="0" width="1170.1999999999998" height="487.0" />
    </clipPath>
    <clipPath id="terminal-1560262123-line-0">
    <rect x="0" y="1.5" width="1171.2" height="24.65"/>
            </clipPath>
<clipPath id="terminal-1560262123-line-1">
    <rect x="0" y="25.9" width="1171.2" height="24.65"/>
            </clipPath>
<clipPath id="terminal-1560262123-line-2">
    <rect x="0" y="50.3" width="1171.2" height="24.65"/>
            </clipPath>
<clipPath id="terminal-1560262123-line-3">
    <rect x="0" y="74.7" width="1171.2" height="24.65"/>
            </clipPath>
<clipPath id="terminal-1560262123-line-4">
    <rect x="0" y="99.1" width="1171.2" height="24.65"/>
            </clipPath>
<clipPath id="terminal-1560262123-line-5">
    <rect x="0" y="123.5" width="1171.2" height="24.65"/>
            </clipPath>
<clipPath id="terminal-1560262123-line-6">
    <rect x="0" y="147.9" width="1171.2" height="24.65"/>
            </clipPath>
<clipPath id="terminal-1560262123-line-7">
    <rect x="0" y="172.3" width="1171.2" height="24.65"/>
            </clipPath>
<clipPath id="terminal-1560262123-line-8">
    <rect x="0" y="196.7" width="1171.2" height="24.65"/>
            </clipPath>
<clipPath id="terminal-1560262123-line-9">
    <rect x="0" y="221.1" width="1171.2" height="24.65"/>
            </clipPath>
<clipPath id="terminal-1560262123-line-10">
    <rect x="0" y="245.5" width="1171.2" height="24.65"/>
            </clipPath>
<clipPath id="terminal-1560262123-line-11">
    <rect x="0" y="269.9" width="1171.2" height="24.65"/>
            </clipPath>
<clipPath id="terminal-1560262123-line-12">
    <rect x="0" y="294.3" width="1171.2" height="24.65"/>
            </clipPath>
<clipPath id="terminal-1560262123-line-13">
    <rect x="0" y="318.7" width="1171.2" height="24.65"/>
            </clipPath>
<clipPath id="terminal-1560262123-line-14">
    <rect x="0" y="343.1" width="1171.2" height="24.65"/>
            </clipPath>
<clipPath id="terminal-1560262123-line-15">
    <rect x="0" y="367.5" width="1171.2" height="24.65"/>
            </clipPath>
<clipPath id="terminal-1560262123-line-16">
    <rect x="0" y="391.9" width="1171.2" height="24.65"/>
            </clipPath>
<clipPath id="terminal-1560262123-line-17">
    <rect x="0" y="416.3" width="1171.2" height="24.65"/>
            </clipPath>
<clipPath id="terminal-1560262123-line-18">
    <rect x="0" y="440.7" width="1171.2" height="24.65"/>
            </clipPath>
    </defs>

    <rect fill="#292929" stroke="rgba(255,255,255,0.35)" stroke-width="1" x="1" y="1" width="1188" height="536" rx="8"/><text class="terminal-1560262123-title" fill="#c5c8c6" text-anchor="middle" x="594" y="27">agents-fuel-gauge</text>
            <g transform="translate(26,22)">
            <circle cx="0" cy="0" r="7" fill="#ff5f57"/>
            <circle cx="22" cy="0" r="7" fill="#febc2e"/>
            <circle cx="44" cy="0" r="7" fill="#28c840"/>
            </g>
        
    <g transform="translate(9, 41)" clip-path="url(#terminal-1560262123-clip-terminal)">
    <rect fill="#d0d0d0" x="0" y="1.5" width="12.2" height="24.65" shape-rendering="crispEdges"/><rect fill="#d0d0d0" x="12.2" y="1.5" width="12.2" height="24.65" shape-rendering="crispEdges"/><rect fill="#d0d0d0" x="24.4" y="1.5" width="61" height="24.65" shape-rendering="crispEdges"/><rect fill="#d0d0d0" x="85.4" y="1.5" width="12.2" height="24.65" shape-rendering="crispEdges"/><rect fill="#d0d0d0" x="97.6" y="1.5" width="366" height="24.65" shape-rendering="crispEdges"/><rect fill="#d0d0d0" x="463.6" y="1.5" width="207.4" height="24.65" shape-rendering="crispEdges"/><rect fill="#d0d0d0" x="671" y="1.5" width="378.2" height="24.65" shape-rendering="crispEdges"/><rect fill="#c6c6c6" x="1049.2" y="1.5" width="12.2" height="24.65" shape-rendering="crispEdges"/><rect fill="#c6c6c6" x="1061.4" y="1.5" width="97.6" height="24.65" shape-rendering="crispEdges"/><rect fill="#c6c6c6" x="1159" y="1.5" width="12.2" height="24.65" shape-rendering="crispEdges"/><rect fill="#d8d8d8" x="0" y="25.9" width="1171.2" height="24.65" shape-rendering="crispEdges"/><rect fill="#d8d8d8" x="0" y="50.3" width="12.2" height="24.65" shape-rendering="crispEdges"/><rect fill="#d8d8d8" x="12.2" y="50.3" width="24.4" height="24.65" shape-rendering="crispEdges"/><rect fill="#d8d8d8" x="36.6" y="50.3" width="195.2" height="24.65" shape-rendering="crispEdges"/><rect fill="#d8d8d8" x="231.8" y="50.3" width="183" height="24.65" shape-rendering="crispEdges"/><rect fill="#d8d8d8" x="414.8" y="50.3" width="24.4" height="24.65" shape-rendering="crispEdges"/><rect fill="#d8d8d8" x="439.2" y="50.3" width="97.6" height="24.65" shape-rendering="crispEdges"/><rect fill="#d8d8d8" x="536.8" y="50.3" width="268.4" height="24.65" shape-rendering="crispEdges"/><rect fill="#d8d8d8" x="805.2" y="50.3" width="61" height="24.65" shape-rendering="crispEdges"/><rect fill="#d8d8d8" x="866.2" y="50.3" width="256.2" height="24.65" shape-rendering="crispEdges"/><rect fill="#d8d8d8" x="1122.4" y="50.3" width="12.2" height="24.65" shape-rendering="crispEdges"/><rect fill="#d8d8d8" x="1134.6" y="50.3" width="24.4" height="24.65" shape-rendering="crispEdges"/><rect fill="#d8d8d8" x="1159" y="50.3" width="12.2" height="24.65" shape-rendering="crispEdges"/><rect fill="#d8d8d8" x="0" y="74.7" width="12.2" height="24.65" shape-rendering="crispEdges"/><rect fill="#d8d8d8" x="12.2" y="74.7" width="1122.4" height="24.65" shape-rendering="crispEdges"/><rect fill="#d8d8d8" x="1134.6" y="74.7" width="12.2" height="24.65" shape-rendering="crispEdges"/><rect fill="#d8d8d8" x="1146.8" y="74.7" width="24.4" height="24.65" shape-rendering="crispEdges"/><rect fill="#d8d8d8" x="0" y="99.1" width="12.2" height="24.65" shape-rendering="crispEdges"/><rect fill="#d8d8d8" x="12.2" y="99.1" width="12.2" height="24.65" shape-rendering="crispEdges"/><rect fill="#d8d8d8" x="24.4" y="99.1" width="12.2" height="24.65" shape-rendering="crispEdges"/><rect fill="#d8d8d8" x="36.6" y="99.1" width="97.6" height="24.65" shape-rendering="crispEdges"/><rect fill="#d8d8d8" x="134.2" y="99.1" width="988.2" height="24.65" shape-rendering="crispEdges"/><rect fill="#d8d8d8" x="1122.4" y="99.1" width="12.2" height="24.65" shape-rendering="crispEdges"/><rect fill="#d8d8d8" x="1134.6" y="99.1" width="12.2" height="24.65" shape-rendering="crispEdges"/><rect fill="#d8d8d8" x="1146.8" y="99.1" width="24.4" height="24.65" shape-rendering="crispEdges"/><rect fill="#d8d8d8" x="0" y="123.5" width="12.2" height="24.65" shape-rendering="crispEdges"/><rect fill="#d8d8d8" x="12.2" y="123.5" width="12.2" height="24.65" shape-rendering="crispEdges"/><rect fill="#d8d8d8" x="24.4" y="123.5" width="1098" height="24.65" shape-rendering="crispEdges"/><rect fill="#d8d8d8" x="1122.4" y="123.5" width="12.2" height="24.65" shape-rendering="crispEdges"/><rect fill="#d8d8d8" x="1134.6" y="123.5" width="12.2" height="24.65" shape-rendering="crispEdges"/><rect fill="#d8d8d8" x="1146.8" y="123.5" width="24.4" height="24.65" shape-rendering="crispEdges"/><rect fill="#d8d8d8" x="0" y="147.9" width="12.2" height="24.65" shape-rendering="crispEdges"/><rect fill="#d8d8d8" x="12.2" y="147.9" width="12.2" height="24.65" shape-rendering="crispEdges"/><rect fill="#d8d8d8" x="24.4" y="147.9" width="24.4" height="24.65" shape-rendering="crispEdges"/><rect fill="#d8d8d8" x="48.8" y="147.9" width="24.4" height="24.65" shape-rendering="crispEdges"/><rect fill="#d8d8d8" x="73.2" y="147.9" width="305" height="24.65" shape-rendering="crispEdges"/><rect fill="#d8d8d8" x="378.2" y="147.9" width="183" height="24.65" shape-rendering="crispEdges"/><rect fill="#d8d8d8" x="561.2" y="147.9" width="341.6" height="24.65" shape-rendering="crispEdges"/><rect fill="#d8d8d8" x="902.8" y="147.9" width="61" height="24.65" shape-rendering="crispEdges"/><rect fill="#d8d8d8" x="963.8" y="147.9" width="97.6" height="24.65" shape-rendering="crispEdges"/><rect fill="#d8d8d8" x="1061.4" y="147.9" width="36.6" height="24.65" shape-rendering="crispEdges"/><rect fill="#d8d8d8" x="1098" y="147.9" width="24.4" height="24.65" shape-rendering="crispEdges"/><rect fill="#d8d8d8" x="1122.4" y="147.9" width="12.2" height="24.65" shape-rendering="crispEdges"/><rect fill="#d8d8d8" x="1134.6" y="147.9" width="12.2" height="24.65" shape-rendering="crispEdges"/><rect fill="#d8d8d8" x="1146.8" y="147.9" width="24.4" height="24.65" shape-rendering="crispEdges"/><rect fill="#d8d8d8" x="0" y="172.3" width="12.2" height="24.65" shape-rendering="crispEdges"/><rect fill="#d8d8d8" x="12.2" y="172.3" width="12.2" height="24.65" shape-rendering="crispEdges"/><rect fill="#d8d8d8" x="24.4" y="172.3" width="24.4" height="24.65" shape-rendering="crispEdges"/><rect fill="#d8d8d8" x="48.8" y="172.3" width="24.4" height="24.65" shape-rendering="crispEdges"/><rect fill="#d8d8d8" x="73.2" y="172.3" width="305" height="24.65" shape-rendering="crispEdges"/><rect fill="#d8d8d8" x="378.2" y="172.3" width="353.8" height="24.65" shape-rendering="crispEdges"/><rect fill="#d8d8d8" x="732" y="172.3" width="158.6" height="24.65" shape-rendering="crispEdges"/><rect fill="#d8d8d8" x="890.6" y="172.3" width="61" height="24.65" shape-rendering="crispEdges"/><rect fill="#d8d8d8" x="951.6" y="172.3" width="109.8" height="24.65" shape-rendering="crispEdges"/><rect fill="#d8d8d8" x="1061.4" y="172.3" width="36.6" height="24.65" shape-rendering="crispEdges"/><rect fill="#d8d8d8" x="1098" y="172.3" width="24.4" height="24.65" shape-rendering="crispEdges"/><rect fill="#d8d8d8" x="1122.4" y="172.3" width="12.2" height="24.65" shape-rendering="crispEdges"/><rect fill="#d8d8d8" x="1134.6" y="172.3" width="12.2" height="24.65" shape-rendering="crispEdges"/><rect fill="#d8d8d8" x="1146.8" y="172.3" width="24.4" height="24.65" shape-rendering="crispEdges"/><rect fill="#d8d8d8" x="0" y="196.7" width="12.2" height="24.65" shape-rendering="crispEdges"/><rect fill="#d8d8d8" x="12.2" y="196.7" width="12.2" height="24.65" shape-rendering="crispEdges"/><rect fill="#d8d8d8" x="24.4" y="196.7" width="24.4" height="24.65" shape-rendering="crispEdges"/><rect fill="#d8d8d8" x="48.8" y="196.7" width="24.4" height="24.65" shape-rendering="crispEdges"/><rect fill="#d8d8d8" x="73.2" y="196.7" width="292.8" height="24.65" shape-rendering="crispEdges"/><rect fill="#d8d8d8" x="366" y="196.7" width="12.2" height="24.65" shape-rendering="crispEdges"/><rect fill="#d8d8d8" x="378.2" y="196.7" width="463.6" height="24.65" shape-rendering="crispEdges"/><rect fill="#d8d8d8" x="841.8" y="196.7" width="48.8" height="24.65" shape-rendering="crispEdges"/><rect fill="#d8d8d8" x="890.6" y="196.7" width="61" height="24.65" shape-rendering="crispEdges"/><rect fill="#d8d8d8" x="951.6" y="196.7" width="109.8" height="24.65" shape-rendering="crispEdges"/><rect fill="#d8d8d8" x="1061.4" y="196.7" width="36.6" height="24.65" shape-rendering="crispEdges"/><rect fill="#d8d8d8" x="1098" y="196.7" width="24.4" height="24.65" shape-rendering="crispEdges"/><rect fill="#d8d8d8" x="1122.4" y="196.7" width="12.2" height="24.65" shape-rendering="crispEdges"/><rect fill="#d8d8d8" x="1134.6" y="196.7" width="12.2" height="24.65" shape-rendering="crispEdges"/><rect fill="#d8d8d8" x="1146.8" y="196.7" width="24.4" height="24.65" shape-rendering="crispEdges"/><rect fill="#d8d8d8" x="0" y="221.1" width="12.2" height="24.65" shape-rendering="crispEdges"/><rect fill="#d8d8d8" x="12.2" y="221.1" width="12.2" height="24.65" shape-rendering="crispEdges"/><rect fill="#d8d8d8" x="24.4" y="221.1" width="1098" height="24.65" shape-rendering="crispEdges"/><rect fill="#d8d8d8" x="1122.4" y="221.1" width="12.2" height="24.65" shape-rendering="crispEdges"/><rect fill="#d8d8d8" x="1134.6" y="221.1" width="12.2" height="24.65" shape-rendering="crispEdges"/><rect fill="#d8d8d8" x="1146.8" y="221.1" width="24.4" height="24.65" shape-rendering="crispEdges"/><rect fill="#d8d8d8" x="0" y="245.5" width="12.2" height="24.65" shape-rendering="crispEdges"/><rect fill="#d8d8d8" x="12.2" y="245.5" width="12.2" height="24.65" shape-rendering="crispEdges"/><rect fill="#d8d8d8" x="24.4" y="245.5" width="646.6" height="24.65" shape-rendering="crispEdges"/><rect fill="#d8d8d8" x="671" y="245.5" width="439.2" height="24.65" shape-rendering="crispEdges"/><rect fill="#d8d8d8" x="1110.2" y="245.5" width="12.2" height="24.65" shape-rendering="crispEdges"/><rect fill="#d8d8d8" x="1122.4" y="245.5" width="12.2" height="24.65" shape-rendering="crispEdges"/><rect fill="#d8d8d8" x="1134.6" y="245.5" width="12.2" height="24.65" shape-rendering="crispEdges"/><rect fill="#d8d8d8" x="1146.8" y="245.5" width="24.4" height="24.65" shape-rendering="crispEdges"/><rect fill="#d8d8d8" x="0" y="269.9" width="12.2" height="24.65" shape-rendering="crispEdges"/><rect fill="#d8d8d8" x="12.2" y="269.9" width="1122.4" height="24.65" shape-rendering="crispEdges"/><rect fill="#d8d8d8" x="1134.6" y="269.9" width="12.2" height="24.65" shape-rendering="crispEdges"/><rect fill="#d8d8d8" x="1146.8" y="269.9" width="24.4" height="24.65" shape-rendering="crispEdges"/><rect fill="#d8d8d8" x="0" y="294.3" width="12.2" height="24.65" shape-rendering="crispEdges"/><rect fill="#d8d8d8" x="12.2" y="294.3" width="12.2" height="24.65" shape-rendering="crispEdges"/><rect fill="#d8d8d8" x="24.4" y="294.3" width="12.2" height="24.65" shape-rendering="crispEdges"/><rect fill="#d8d8d8" x="36.6" y="294.3" width="85.4" height="24.65" shape-rendering="crispEdges"/><rect fill="#d8d8d8" x="122" y="294.3" width="1000.4" height="24.65" shape-rendering="crispEdges"/><rect fill="#d8d8d8" x="1122.4" y="294.3" width="12.2" height="24.65" shape-rendering="crispEdges"/><rect fill="#d8d8d8" x="1134.6" y="294.3" width="12.2" height="24.65" shape-rendering="crispEdges"/><rect fill="#d8d8d8" x="1146.8" y="294.3" width="24.4" height="24.65" shape-rendering="crispEdges"/><rect fill="#d8d8d8" x="0" y="318.7" width="12.2" height="24.65" shape-rendering="crispEdges"/><rect fill="#d8d8d8" x="12.2" y="318.7" width="12.2" height="24.65" shape-rendering="crispEdges"/><rect fill="#d8d8d8" x="24.4" y="318.7" width="1098" height="24.65" shape-rendering="crispEdges"/><rect fill="#d8d8d8" x="1122.4" y="318.7" width="12.2" height="24.65" shape-rendering="crispEdges"/><rect fill="#d8d8d8" x="1134.6" y="318.7" width="12.2" height="24.65" shape-rendering="crispEdges"/><rect fill="#d8d8d8" x="1146.8" y="318.7" width="24.4" height="24.65" shape-rendering="crispEdges"/><rect fill="#d8d8d8" x="0" y="343.1" width="12.2" height="24.65" shape-rendering="crispEdges"/><rect fill="#d8d8d8" x="12.2" y="343.1" width="12.2" height="24.65" shape-rendering="crispEdges"/><rect fill="#d8d8d8" x="24.4" y="343.1" width="24.4" height="24.65" shape-rendering="crispEdges"/><rect fill="#d8d8d8" x="48.8" y="343.1" width="24.4" height="24.65" shape-rendering="crispEdges"/><rect fill="#d8d8d8" x="73.2" y="343.1" width="292.8" height="24.65" shape-rendering="crispEdges"/><rect fill="#d8d8d8" x="366" y="343.1" width="12.2" height="24.65" shape-rendering="crispEdges"/><rect fill="#d8d8d8" x="378.2" y="343.1" width="427" height="24.65" shape-rendering="crispEdges"/><rect fill="#d8d8d8" x="805.2" y="343.1" width="97.6" height="24.65" shape-rendering="crispEdges"/><rect fill="#d8d8d8" x="902.8" y="343.1" width="61" height="24.65" shape-rendering="crispEdges"/><rect fill="#d8d8d8" x="963.8" y="343.1" width="97.6" height="24.65" shape-rendering="crispEdges"/><rect fill="#d8d8d8" x="1061.4" y="343.1" width="36.6" height="24.65" shape-rendering="crispEdges"/><rect fill="#d8d8d8" x="1098" y="343.1" width="24.4" height="24.65" shape-rendering="crispEdges"/><rect fill="#d8d8d8" x="1122.4" y="343.1" width="12.2" height="24.65" shape-rendering="crispEdges"/><rect fill="#d8d8d8" x="1134.6" y="343.1" width="12.2" height="24.65" shape-rendering="crispEdges"/><rect fill="#d8d8d8" x="1146.8" y="343.1" width="24.4" height="24.65" shape-rendering="crispEdges"/><rect fill="#d8d8d8" x="0" y="367.5" width="12.2" height="24.65" shape-rendering="crispEdges"/><rect fill="#d8d8d8" x="12.2" y="367.5" width="12.2" height="24.65" shape-rendering="crispEdges"/><rect fill="#d8d8d8" x="24.4" y="367.5" width="24.4" height="24.65" shape-rendering="crispEdges"/><rect fill="#d8d8d8" x="48.8" y="367.5" width="24.4" height="24.65" shape-rendering="crispEdges"/><rect fill="#d8d8d8" x="73.2" y="367.5" width="305" height="24.65" shape-rendering="crispEdges"/><rect fill="#d8d8d8" x="378.2" y="367.5" width="61" height="24.65" shape-rendering="crispEdges"/><rect fill="#d8d8d8" x="439.2" y="367.5" width="463.6" height="24.65" shape-rendering="crispEdges"/><rect fill="#d8d8d8" x="902.8" y="367.5" width="61" height="24.65" shape-rendering="crispEdges"/><rect fill="#d8d8d8" x="963.8" y="367.5" width="97.6" height="24.65" shape-rendering="crispEdges"/><rect fill="#d8d8d8" x="1061.4" y="367.5" width="36.6" height="24.65" shape-rendering="crispEdges"/><rect fill="#d8d8d8" x="1098" y="367.5" width="24.4" height="24.65" shape-rendering="crispEdges"/><rect fill="#d8d8d8" x="1122.4" y="367.5" width="12.2" height="24.65" shape-rendering="crispEdges"/><rect fill="#d8d8d8" x="1134.6" y="367.5" width="12.2" height="24.65" shape-rendering="crispEdges"/><rect fill="#d8d8d8" x="1146.8" y="367.5" width="24.4" height="24.65" shape-rendering="crispEdges"/><rect fill="#d8d8d8" x="0" y="391.9" width="12.2" height="24.65" shape-rendering="crispEdges"/><rect fill="#d8d8d8" x="12.2" y="391.9" width="12.2" height="24.65" shape-rendering="crispEdges"/><rect fill="#d8d8d8" x="24.4" y="391.9" width="1098" height="24.65" shape-rendering="crispEdges"/><rect fill="#d8d8d8" x="1122.4" y="391.9" width="12.2" height="24.65" shape-rendering="crispEdges"/><rect fill="#d8d8d8" x="1134.6" y="391.9" width="12.2" height="24.65" shape-rendering="crispEdges"/><rect fill="#d8d8d8" x="1146.8" y="391.9" width="24.4" height="24.65" shape-rendering="crispEdges"/><rect fill="#d8d8d8" x="0" y="416.3" width="12.2" height="24.65" shape-rendering="crispEdges"/><rect fill="#d8d8d8" x="12.2" y="416.3" width="12.2" height="24.65" shape-rendering="crispEdges"/><rect fill="#d8d8d8" x="24.4" y="416.3" width="719.8" height="24.65" shape-rendering="crispEdges"/><rect fill="#d8d8d8" x="744.2" y="416.3" width="366" height="24.65" shape-rendering="crispEdges"/><rect fill="#d8d8d8" x="1110.2" y="416.3" width="12.2" height="24.65" shape-rendering="crispEdges"/><rect fill="#d8d8d8" x="1122.4" y="416.3" width="12.2" height="24.65" shape-rendering="crispEdges"/><rect fill="#d8d8d8" x="1134.6" y="416.3" width="12.2" height="24.65" shape-rendering="crispEdges"/><rect fill="#d8d8d8" x="1146.8" y="416.3" width="24.4" height="24.65" shape-rendering="crispEdges"/><rect fill="#d8d8d8" x="0" y="440.7" width="12.2" height="24.65" shape-rendering="crispEdges"/><rect fill="#d8d8d8" x="12.2" y="440.7" width="1122.4" height="24.65" shape-rendering="crispEdges"/><rect fill="#d8d8d8" x="1134.6" y="440.7" width="12.2" height="24.65" shape-rendering="crispEdges"/><rect fill="#d8d8d8" x="1146.8" y="440.7" width="24.4" height="24.65" shape-rendering="crispEdges"/><rect fill="#d0d0d0" x="0" y="465.1" width="36.6" height="24.65" shape-rendering="crispEdges"/><rect fill="#d0d0d0" x="36.6" y="465.1" width="61" height="24.65" shape-rendering="crispEdges"/><rect fill="#d0d0d0" x="97.6" y="465.1" width="36.6" height="24.65" shape-rendering="crispEdges"/><rect fill="#d0d0d0" x="134.2" y="465.1" width="97.6" height="24.65" shape-rendering="crispEdges"/><rect fill="#d0d0d0" x="231.8" y="465.1" width="36.6" height="24.65" shape-rendering="crispEdges"/><rect fill="#d0d0d0" x="268.4" y="465.1" width="73.2" height="24.65" shape-rendering="crispEdges"/><rect fill="#d0d0d0" x="341.6" y="465.1" width="683.2" height="24.65" shape-rendering="crispEdges"/><rect fill="#d0d0d0" x="1024.8" y="465.1" width="12.2" height="24.65" shape-rendering="crispEdges"/><rect fill="#d0d0d0" x="1037" y="465.1" width="24.4" height="24.65" shape-rendering="crispEdges"/><rect fill="#d0d0d0" x="1061.4" y="465.1" width="97.6" height="24.65" shape-rendering="crispEdges"/><rect fill="#d0d0d0" x="1159" y="465.1" width="12.2" height="24.65" shape-rendering="crispEdges"/>
    <g class="terminal-1560262123-matrix">
    <text class="terminal-1560262123-r2" x="12.2" y="20" textLength="12.2" clip-path="url(#terminal-1560262123-line-0)">≡</text><text class="terminal-1560262123-r2" x="463.6" y="20" textLength="207.4" clip-path="url(#terminal-1560262123-line-0)">agents&#160;fuel&#160;gauge</text><text class="terminal-1560262123-r3" x="1061.4" y="20" textLength="97.6" clip-path="url(#terminal-1560262123-line-0)">07:04:19</text><text class="terminal-1560262123-r1" x="1171.2" y="20" textLength="12.2" clip-path="url(#terminal-1560262123-line-0)">
</text><text class="terminal-1560262123-r1" x="1171.2" y="44.4" textLength="12.2" clip-path="url(#terminal-1560262123-line-1)">
</text><text class="terminal-1560262123-r4" x="36.6" y="68.8" textLength="195.2" clip-path="url(#terminal-1560262123-line-2)">runs&#160;out&#160;first:&#160;</text><text class="terminal-1560262123-r5" x="231.8" y="68.8" textLength="183" clip-path="url(#terminal-1560262123-line-2)">Claude&#160;7d&#160;Fable</text><text class="terminal-1560262123-r5" x="439.2" y="68.8" textLength="97.6" clip-path="url(#terminal-1560262123-line-2)">91%&#160;used</text><text class="terminal-1560262123-r4" x="536.8" y="68.8" textLength="268.4" clip-path="url(#terminal-1560262123-line-2)">&#160;&#160;·&#160;&#160;resets&#160;in&#160;18h&#160;07m</text><text class="terminal-1560262123-r4" x="805.2" y="68.8" textLength="61" clip-path="url(#terminal-1560262123-line-2)">&#160;&#160;·&#160;&#160;</text><text class="terminal-1560262123-r5" x="866.2" y="68.8" textLength="256.2" clip-path="url(#terminal-1560262123-line-2)">slow&#160;to&#160;8%&#160;of&#160;current</text><text class="terminal-1560262123-r1" x="1171.2" y="68.8" textLength="12.2" clip-path="url(#terminal-1560262123-line-2)">
</text><text class="terminal-1560262123-r1" x="1171.2" y="93.2" textLength="12.2" clip-path="url(#terminal-1560262123-line-3)">
</text><text class="terminal-1560262123-r6" x="12.2" y="117.6" textLength="12.2" clip-path="url(#terminal-1560262123-line-4)">╭</text><text class="terminal-1560262123-r6" x="24.4" y="117.6" textLength="12.2" clip-path="url(#terminal-1560262123-line-4)">─</text><text class="terminal-1560262123-r7" x="36.6" y="117.6" textLength="97.6" clip-path="url(#terminal-1560262123-line-4)">&#160;Claude&#160;</text><text class="terminal-1560262123-r6" x="134.2" y="117.6" textLength="988.2" clip-path="url(#terminal-1560262123-line-4)">─────────────────────────────────────────────────────────────────────────────────</text><text class="terminal-1560262123-r6" x="1122.4" y="117.6" textLength="12.2" clip-path="url(#terminal-1560262123-line-4)">╮</text><text class="terminal-1560262123-r1" x="1171.2" y="117.6" textLength="12.2" clip-path="url(#terminal-1560262123-line-4)">
</text><text class="terminal-1560262123-r6" x="12.2" y="142" textLength="12.2" clip-path="url(#terminal-1560262123-line-5)">│</text><text class="terminal-1560262123-r6" x="1122.4" y="142" textLength="12.2" clip-path="url(#terminal-1560262123-line-5)">│</text><text class="terminal-1560262123-r1" x="1171.2" y="142" textLength="12.2" clip-path="url(#terminal-1560262123-line-5)">
</text><text class="terminal-1560262123-r6" x="12.2" y="166.4" textLength="12.2" clip-path="url(#terminal-1560262123-line-6)">│</text><text class="terminal-1560262123-r2" x="73.2" y="166.4" textLength="305" clip-path="url(#terminal-1560262123-line-6)">5h&#160;all&#160;models&#160;&#160;&#160;&#160;&#160;&#160;&#160;&#160;&#160;&#160;&#160;&#160;</text><text class="terminal-1560262123-r8" x="378.2" y="166.4" textLength="183" clip-path="url(#terminal-1560262123-line-6)">███████████████</text><text class="terminal-1560262123-r9" x="561.2" y="166.4" textLength="341.6" clip-path="url(#terminal-1560262123-line-6)">░░░░░░░░░░░░░░░░░░░░░░░░░░░░</text><text class="terminal-1560262123-r10" x="902.8" y="166.4" textLength="61" clip-path="url(#terminal-1560262123-line-6)">&#160;&#160;34%</text><text class="terminal-1560262123-r4" x="963.8" y="166.4" textLength="97.6" clip-path="url(#terminal-1560262123-line-6)">&#160;&#160;2h&#160;10m</text><text class="terminal-1560262123-r8" x="1061.4" y="166.4" textLength="36.6" clip-path="url(#terminal-1560262123-line-6)">&#160;↓&#160;</text><text class="terminal-1560262123-r6" x="1122.4" y="166.4" textLength="12.2" clip-path="url(#terminal-1560262123-line-6)">│</text><text class="terminal-1560262123-r1" x="1171.2" y="166.4" textLength="12.2" clip-path="url(#terminal-1560262123-line-6)">
</text><text class="terminal-1560262123-r6" x="12.2" y="190.8" textLength="12.2" clip-path="url(#terminal-1560262123-line-7)">│</text><text class="terminal-1560262123-r2" x="73.2" y="190.8" textLength="305" clip-path="url(#terminal-1560262123-line-7)">7d&#160;all&#160;models&#160;&#160;&#160;&#160;&#160;&#160;&#160;&#160;&#160;&#160;&#160;&#160;</text><text class="terminal-1560262123-r11" x="378.2" y="190.8" textLength="353.8" clip-path="url(#terminal-1560262123-line-7)">█████████████████████████████</text><text class="terminal-1560262123-r9" x="732" y="190.8" textLength="158.6" clip-path="url(#terminal-1560262123-line-7)">░░░░░░░░░░░░░</text><text class="terminal-1560262123-r12" x="890.6" y="190.8" textLength="61" clip-path="url(#terminal-1560262123-line-7)">&#160;&#160;68%</text><text class="terminal-1560262123-r4" x="951.6" y="190.8" textLength="109.8" clip-path="url(#terminal-1560262123-line-7)">&#160;&#160;18h&#160;07m</text><text class="terminal-1560262123-r8" x="1061.4" y="190.8" textLength="36.6" clip-path="url(#terminal-1560262123-line-7)">&#160;↓&#160;</text><text class="terminal-1560262123-r6" x="1122.4" y="190.8" textLength="12.2" clip-path="url(#terminal-1560262123-line-7)">│</text><text class="terminal-1560262123-r1" x="1171.2" y="190.8" textLength="12.2" clip-path="url(#terminal-1560262123-line-7)">
</text><text class="terminal-1560262123-r6" x="12.2" y="215.2" textLength="12.2" clip-path="url(#terminal-1560262123-line-8)">│</text><text class="terminal-1560262123-r5" x="48.8" y="215.2" textLength="24.4" clip-path="url(#terminal-1560262123-line-8)">◆&#160;</text><text class="terminal-1560262123-r13" x="73.2" y="215.2" textLength="292.8" clip-path="url(#terminal-1560262123-line-8)">7d&#160;Fable&#160;&#160;&#160;&#160;&#160;&#160;&#160;&#160;&#160;&#160;&#160;&#160;&#160;&#160;&#160;&#160;</text><text class="terminal-1560262123-r14" x="378.2" y="215.2" textLength="463.6" clip-path="url(#terminal-1560262123-line-8)">██████████████████████████████████████</text><text class="terminal-1560262123-r9" x="841.8" y="215.2" textLength="48.8" clip-path="url(#terminal-1560262123-line-8)">░░░░</text><text class="terminal-1560262123-r5" x="890.6" y="215.2" textLength="61" clip-path="url(#terminal-1560262123-line-8)">&#160;&#160;91%</text><text class="terminal-1560262123-r4" x="951.6" y="215.2" textLength="109.8" clip-path="url(#terminal-1560262123-line-8)">&#160;&#160;18h&#160;07m</text><text class="terminal-1560262123-r4" x="1061.4" y="215.2" textLength="36.6" clip-path="url(#terminal-1560262123-line-8)">&#160;·&#160;</text><text class="terminal-1560262123-r6" x="1122.4" y="215.2" textLength="12.2" clip-path="url(#terminal-1560262123-line-8)">│</text><text class="terminal-1560262123-r1" x="1171.2" y="215.2" textLength="12.2" clip-path="url(#terminal-1560262123-line-8)">
</text><text class="terminal-1560262123-r6" x="12.2" y="239.6" textLength="12.2" clip-path="url(#terminal-1560262123-line-9)">│</text><text class="terminal-1560262123-r6" x="1122.4" y="239.6" textLength="12.2" clip-path="url(#terminal-1560262123-line-9)">│</text><text class="terminal-1560262123-r1" x="1171.2" y="239.6" textLength="12.2" clip-path="url(#terminal-1560262123-line-9)">
</text><text class="terminal-1560262123-r6" x="12.2" y="264" textLength="12.2" clip-path="url(#terminal-1560262123-line-10)">╰</text><text class="terminal-1560262123-r6" x="24.4" y="264" textLength="646.6" clip-path="url(#terminal-1560262123-line-10)">─────────────────────────────────────────────────────</text><text class="terminal-1560262123-r15" x="671" y="264" textLength="439.2" clip-path="url(#terminal-1560262123-line-10)">&#160;Max&#160;20x&#160;·&#160;d•••@e•••.com&#160;·&#160;just&#160;now&#160;</text><text class="terminal-1560262123-r6" x="1110.2" y="264" textLength="12.2" clip-path="url(#terminal-1560262123-line-10)">─</text><text class="terminal-1560262123-r6" x="1122.4" y="264" textLength="12.2" clip-path="url(#terminal-1560262123-line-10)">╯</text><text class="terminal-1560262123-r1" x="1171.2" y="264" textLength="12.2" clip-path="url(#terminal-1560262123-line-10)">
</text><text class="terminal-1560262123-r1" x="1171.2" y="288.4" textLength="12.2" clip-path="url(#terminal-1560262123-line-11)">
</text><text class="terminal-1560262123-r6" x="12.2" y="312.8" textLength="12.2" clip-path="url(#terminal-1560262123-line-12)">╭</text><text class="terminal-1560262123-r6" x="24.4" y="312.8" textLength="12.2" clip-path="url(#terminal-1560262123-line-12)">─</text><text class="terminal-1560262123-r7" x="36.6" y="312.8" textLength="85.4" clip-path="url(#terminal-1560262123-line-12)">&#160;Codex&#160;</text><text class="terminal-1560262123-r6" x="122" y="312.8" textLength="1000.4" clip-path="url(#terminal-1560262123-line-12)">──────────────────────────────────────────────────────────────────────────────────</text><text class="terminal-1560262123-r6" x="1122.4" y="312.8" textLength="12.2" clip-path="url(#terminal-1560262123-line-12)">╮</text><text class="terminal-1560262123-r1" x="1171.2" y="312.8" textLength="12.2" clip-path="url(#terminal-1560262123-line-12)">
</text><text class="terminal-1560262123-r6" x="12.2" y="337.2" textLength="12.2" clip-path="url(#terminal-1560262123-line-13)">│</text><text class="terminal-1560262123-r6" x="1122.4" y="337.2" textLength="12.2" clip-path="url(#terminal-1560262123-line-13)">│</text><text class="terminal-1560262123-r1" x="1171.2" y="337.2" textLength="12.2" clip-path="url(#terminal-1560262123-line-13)">
</text><text class="terminal-1560262123-r6" x="12.2" y="361.6" textLength="12.2" clip-path="url(#terminal-1560262123-line-14)">│</text><text class="terminal-1560262123-r12" x="48.8" y="361.6" textLength="24.4" clip-path="url(#terminal-1560262123-line-14)">◆&#160;</text><text class="terminal-1560262123-r13" x="73.2" y="361.6" textLength="292.8" clip-path="url(#terminal-1560262123-line-14)">7d&#160;all&#160;models&#160;&#160;&#160;&#160;&#160;&#160;&#160;&#160;&#160;&#160;&#160;</text><text class="terminal-1560262123-r11" x="378.2" y="361.6" textLength="427" clip-path="url(#terminal-1560262123-line-14)">███████████████████████████████████</text><text class="terminal-1560262123-r9" x="805.2" y="361.6" textLength="97.6" clip-path="url(#terminal-1560262123-line-14)">░░░░░░░░</text><text class="terminal-1560262123-r12" x="902.8" y="361.6" textLength="61" clip-path="url(#terminal-1560262123-line-14)">&#160;&#160;82%</text><text class="terminal-1560262123-r4" x="963.8" y="361.6" textLength="97.6" clip-path="url(#terminal-1560262123-line-14)">&#160;&#160;5d&#160;01h</text><text class="terminal-1560262123-r5" x="1061.4" y="361.6" textLength="36.6" clip-path="url(#terminal-1560262123-line-14)">&#160;↑&#160;</text><text class="terminal-1560262123-r6" x="1122.4" y="361.6" textLength="12.2" clip-path="url(#terminal-1560262123-line-14)">│</text><text class="terminal-1560262123-r1" x="1171.2" y="361.6" textLength="12.2" clip-path="url(#terminal-1560262123-line-14)">
</text><text class="terminal-1560262123-r6" x="12.2" y="386" textLength="12.2" clip-path="url(#terminal-1560262123-line-15)">│</text><text class="terminal-1560262123-r2" x="73.2" y="386" textLength="305" clip-path="url(#terminal-1560262123-line-15)">7d&#160;GPT-5.3-Codex-Spark&#160;&#160;&#160;</text><text class="terminal-1560262123-r8" x="378.2" y="386" textLength="61" clip-path="url(#terminal-1560262123-line-15)">█████</text><text class="terminal-1560262123-r9" x="439.2" y="386" textLength="463.6" clip-path="url(#terminal-1560262123-line-15)">░░░░░░░░░░░░░░░░░░░░░░░░░░░░░░░░░░░░░░</text><text class="terminal-1560262123-r10" x="902.8" y="386" textLength="61" clip-path="url(#terminal-1560262123-line-15)">&#160;&#160;12%</text><text class="terminal-1560262123-r4" x="963.8" y="386" textLength="97.6" clip-path="url(#terminal-1560262123-line-15)">&#160;&#160;6d&#160;21h</text><text class="terminal-1560262123-r4" x="1061.4" y="386" textLength="36.6" clip-path="url(#terminal-1560262123-line-15)">&#160;◦&#160;</text><text class="terminal-1560262123-r6" x="1122.4" y="386" textLength="12.2" clip-path="url(#terminal-1560262123-line-15)">│</text><text class="terminal-1560262123-r1" x="1171.2" y="386" textLength="12.2" clip-path="url(#terminal-1560262123-line-15)">
</text><text class="terminal-1560262123-r6" x="12.2" y="410.4" textLength="12.2" clip-path="url(#terminal-1560262123-line-16)">│</text><text class="terminal-1560262123-r6" x="1122.4" y="410.4" textLength="12.2" clip-path="url(#terminal-1560262123-line-16)">│</text><text class="terminal-1560262123-r1" x="1171.2" y="410.4" textLength="12.2" clip-path="url(#terminal-1560262123-line-16)">
</text><text class="terminal-1560262123-r6" x="12.2" y="434.8" textLength="12.2" clip-path="url(#terminal-1560262123-line-17)">╰</text><text class="terminal-1560262123-r6" x="24.4" y="434.8" textLength="719.8" clip-path="url(#terminal-1560262123-line-17)">───────────────────────────────────────────────────────────</text><text class="terminal-1560262123-r15" x="744.2" y="434.8" textLength="366" clip-path="url(#terminal-1560262123-line-17)">&#160;Pro&#160;·&#160;d•••@e•••.com&#160;·&#160;4m&#160;ago&#160;</text><text class="terminal-1560262123-r6" x="1110.2" y="434.8" textLength="12.2" clip-path="url(#terminal-1560262123-line-17)">─</text><text class="terminal-1560262123-r6" x="1122.4" y="434.8" textLength="12.2" clip-path="url(#terminal-1560262123-line-17)">╯</text><text class="terminal-1560262123-r1" x="1171.2" y="434.8" textLength="12.2" clip-path="url(#terminal-1560262123-line-17)">
</text><text class="terminal-1560262123-r1" x="1171.2" y="459.2" textLength="12.2" clip-path="url(#terminal-1560262123-line-18)">
</text><text class="terminal-1560262123-r16" x="0" y="483.6" textLength="36.6" clip-path="url(#terminal-1560262123-line-19)">&#160;q&#160;</text><text class="terminal-1560262123-r2" x="36.6" y="483.6" textLength="61" clip-path="url(#terminal-1560262123-line-19)">Quit&#160;</text><text class="terminal-1560262123-r16" x="97.6" y="483.6" textLength="36.6" clip-path="url(#terminal-1560262123-line-19)">&#160;r&#160;</text><text class="terminal-1560262123-r2" x="134.2" y="483.6" textLength="97.6" clip-path="url(#terminal-1560262123-line-19)">Refresh&#160;</text><text class="terminal-1560262123-r16" x="231.8" y="483.6" textLength="36.6" clip-path="url(#terminal-1560262123-line-19)">&#160;t&#160;</text><text class="terminal-1560262123-r2" x="268.4" y="483.6" textLength="73.2" clip-path="url(#terminal-1560262123-line-19)">Theme&#160;</text><text class="terminal-1560262123-r17" x="1024.8" y="483.6" textLength="12.2" clip-path="url(#terminal-1560262123-line-19)">▏</text><text class="terminal-1560262123-r16" x="1037" y="483.6" textLength="24.4" clip-path="url(#terminal-1560262123-line-19)">^p</text><text class="terminal-1560262123-r2" x="1061.4" y="483.6" textLength="97.6" clip-path="url(#terminal-1560262123-line-19)">&#160;palette</text>
    </g>
    </g>
</svg>
